<?xml version="1.0" encoding="utf-8"?>
<!-- Generator: Adobe Illustrator 21.0.2, SVG Export Plug-In . SVG Version: 6.00 Build 0)  -->
<svg version="1.1" id="Layer_1" xmlns="http://www.w3.org/2000/svg" xmlns:xlink="http://www.w3.org/1999/xlink" x="0px" y="0px"
	 viewBox="0 0 368 145" style="enable-background:new 0 0 368 145;" xml:space="preserve">
<style type="text/css">
	.st0{fill:#E64754;}
	.st1{fill:#E54654;}
	.st2{fill:#FFFFFF;}
</style>
<g>
	<path class="st0" d="M345.3,116.2H22.7C10.2,116.2,0,106,0,93.5V22.7C0,10.2,10.2,0,22.7,0h322.6C357.8,0,368,10.2,368,22.7v70.8
		C368,106,357.8,116.2,345.3,116.2z"/>
	<path class="st1" d="M150.1,111.2L184,145c0,0,20.7-20.7,33.9-33.9H150.1z"/>
</g>
<g>
	<path class="st2" d="M90.1,31.1H70.6v12.5h16.3c1.5,0,2.6,0.3,3.4,1c0.7,0.7,1.1,1.6,1.1,2.7c0,1.1-0.4,2-1.1,2.7
		c-0.8,0.7-1.9,1-3.4,1H70.6v16.1c0,2-0.5,3.6-1.4,4.5c-0.9,1-2.1,1.5-3.5,1.5c-1.5,0-2.7-0.5-3.6-1.5c-0.9-1-1.4-2.5-1.4-4.5V29.6
		c0-1.4,0.2-2.6,0.6-3.5c0.4-0.9,1.1-1.6,2-2c0.9-0.4,2-0.6,3.4-0.6h23.3c1.6,0,2.7,0.3,3.5,1c0.8,0.7,1.1,1.6,1.1,2.7
		c0,1.2-0.4,2.1-1.1,2.8C92.8,30.8,91.7,31.1,90.1,31.1z"/>
	<path class="st2" d="M119.9,68c-2.2,1.7-4.3,3-6.4,3.8c-2.1,0.9-4.4,1.3-6.9,1.3c-2.3,0-4.4-0.5-6.1-1.4c-1.8-0.9-3.1-2.2-4.1-3.7
		c-1-1.6-1.4-3.3-1.4-5.1c0-2.5,0.8-4.6,2.4-6.4c1.6-1.8,3.7-2.9,6.5-3.5c0.6-0.1,2-0.4,4.3-0.9c2.3-0.5,4.2-0.9,5.9-1.3
		c1.6-0.4,3.4-0.9,5.3-1.4c-0.1-2.4-0.6-4.2-1.4-5.3c-0.9-1.1-2.6-1.7-5.3-1.7c-2.3,0-4,0.3-5.2,1c-1.2,0.6-2.2,1.6-3,2.9
		c-0.8,1.3-1.4,2.1-1.8,2.5c-0.3,0.4-1.1,0.6-2.2,0.6c-1,0-1.9-0.3-2.6-1C97,47.9,96.6,47,96.6,46c0-1.6,0.6-3.2,1.7-4.7
		s2.9-2.8,5.3-3.7c2.4-1,5.4-1.5,9-1.5c4,0,7.1,0.5,9.4,1.4c2.3,0.9,3.9,2.4,4.8,4.5c0.9,2,1.4,4.8,1.4,8.1c0,2.1,0,3.9,0,5.4
		c0,1.5,0,3.1,0,5c0,1.7,0.3,3.5,0.8,5.3c0.6,1.9,0.8,3,0.8,3.6c0,0.9-0.4,1.8-1.3,2.5c-0.9,0.8-1.9,1.1-3,1.1
		c-0.9,0-1.9-0.4-2.8-1.3C121.9,71,120.9,69.7,119.9,68z M119.3,54.9c-1.3,0.5-3.3,1-5.8,1.5c-2.5,0.5-4.3,0.9-5.3,1.2
		c-1,0.3-1.9,0.8-2.8,1.5c-0.9,0.7-1.3,1.8-1.3,3.1c0,1.4,0.5,2.5,1.6,3.5c1,1,2.4,1.4,4.1,1.4c1.8,0,3.5-0.4,5-1.2
		c1.5-0.8,2.6-1.8,3.3-3c0.8-1.4,1.2-3.6,1.2-6.8V54.9z"/>
	<path class="st2" d="M142.9,41.2v1.1c1.6-2.1,3.3-3.7,5.2-4.6s4.1-1.5,6.5-1.5c2.4,0,4.5,0.5,6.4,1.6c1.9,1,3.3,2.5,4.2,4.4
		c0.6,1.1,1,2.3,1.2,3.6c0.2,1.3,0.3,2.9,0.3,4.9v16.9c0,1.8-0.4,3.2-1.2,4.1c-0.8,0.9-1.9,1.4-3.2,1.4c-1.4,0-2.5-0.5-3.3-1.4
		c-0.8-1-1.3-2.3-1.3-4.1V52.5c0-3-0.4-5.3-1.2-6.9c-0.8-1.6-2.5-2.4-5-2.4c-1.6,0-3.1,0.5-4.4,1.4c-1.3,1-2.3,2.3-2.9,4
		c-0.4,1.4-0.7,3.9-0.7,7.6v11.4c0,1.8-0.4,3.2-1.3,4.1c-0.9,0.9-2,1.4-3.3,1.4c-1.3,0-2.4-0.5-3.2-1.4c-0.8-1-1.3-2.3-1.3-4.1V41.4
		c0-1.7,0.4-3,1.1-3.9c0.8-0.9,1.8-1.3,3.1-1.3c0.8,0,1.5,0.2,2.2,0.6c0.6,0.4,1.2,0.9,1.5,1.7C142.7,39.2,142.9,40.1,142.9,41.2z"
		/>
	<path class="st2" d="M181.2,41.2v1.1c1.6-2.1,3.3-3.7,5.2-4.6c1.9-1,4.1-1.5,6.5-1.5c2.4,0,4.5,0.5,6.4,1.6c1.9,1,3.3,2.5,4.2,4.4
		c0.6,1.1,1,2.3,1.2,3.6c0.2,1.3,0.3,2.9,0.3,4.9v16.9c0,1.8-0.4,3.2-1.2,4.1c-0.8,0.9-1.9,1.4-3.2,1.4c-1.4,0-2.5-0.5-3.3-1.4
		c-0.8-1-1.3-2.3-1.3-4.1V52.5c0-3-0.4-5.3-1.2-6.9c-0.8-1.6-2.5-2.4-5-2.4c-1.6,0-3.1,0.5-4.4,1.4c-1.3,1-2.3,2.3-2.9,4
		c-0.4,1.4-0.7,3.9-0.7,7.6v11.4c0,1.8-0.4,3.2-1.3,4.1c-0.9,0.9-2,1.4-3.3,1.4c-1.3,0-2.4-0.5-3.2-1.4c-0.8-1-1.3-2.3-1.3-4.1V41.4
		c0-1.7,0.4-3,1.1-3.9c0.8-0.9,1.8-1.3,3.1-1.3c0.8,0,1.5,0.2,2.2,0.6c0.6,0.4,1.2,0.9,1.5,1.7C181.1,39.2,181.2,40.1,181.2,41.2z"
		/>
	<path class="st2" d="M211.8,37h1v-5.5c0-1.5,0-2.6,0.1-3.4c0.1-0.8,0.3-1.5,0.6-2.1c0.4-0.6,0.9-1.1,1.5-1.5
		c0.7-0.4,1.4-0.6,2.2-0.6c1.2,0,2.2,0.4,3.1,1.3c0.6,0.6,1,1.3,1.2,2.1c0.2,0.8,0.2,2,0.2,3.5V37h3.3c1.3,0,2.3,0.3,2.9,0.9
		c0.7,0.6,1,1.4,1,2.3c0,1.2-0.5,2.1-1.4,2.6c-1,0.5-2.3,0.7-4.1,0.7h-1.7v16.7c0,1.4,0,2.5,0.1,3.3c0.1,0.8,0.4,1.4,0.8,1.9
		c0.4,0.5,1.1,0.7,2.1,0.7c0.5,0,1.3-0.1,2.2-0.3c0.9-0.2,1.6-0.3,2.1-0.3c0.7,0,1.4,0.3,2,0.9c0.6,0.6,0.9,1.3,0.9,2.2
		c0,1.5-0.8,2.6-2.4,3.4c-1.6,0.8-3.9,1.2-6.9,1.2c-2.8,0-5-0.5-6.5-1.4s-2.4-2.3-2.9-4c-0.5-1.7-0.7-3.9-0.7-6.8V43.6h-1.2
		c-1.3,0-2.3-0.3-3-0.9c-0.7-0.6-1-1.4-1-2.4c0-1,0.4-1.7,1.1-2.3C209.4,37.3,210.5,37,211.8,37z"/>
	<path class="st2" d="M267.6,54.7c0,2.7-0.4,5.2-1.3,7.5c-0.8,2.3-2.1,4.3-3.7,5.9c-1.6,1.6-3.5,2.9-5.7,3.8
		c-2.2,0.9-4.7,1.3-7.5,1.3c-2.8,0-5.2-0.4-7.4-1.3c-2.2-0.9-4.1-2.2-5.7-3.8c-1.6-1.7-2.8-3.6-3.7-5.9s-1.2-4.7-1.2-7.5
		c0-2.8,0.4-5.3,1.3-7.6c0.8-2.3,2.1-4.2,3.6-5.9c1.6-1.6,3.5-2.9,5.7-3.7c2.2-0.9,4.7-1.3,7.4-1.3c2.8,0,5.3,0.4,7.5,1.3
		c2.2,0.9,4.2,2.2,5.8,3.8c1.6,1.6,2.8,3.6,3.6,5.9C267.2,49.5,267.6,52,267.6,54.7z M258.5,54.7c0-3.7-0.8-6.6-2.4-8.7
		c-1.6-2.1-3.8-3.1-6.6-3.1c-1.8,0-3.3,0.5-4.7,1.4s-2.4,2.3-3.1,4.1c-0.7,1.8-1.1,3.9-1.1,6.3c0,2.4,0.4,4.5,1.1,6.2
		c0.7,1.8,1.8,3.1,3.1,4.1s2.9,1.4,4.7,1.4c2.8,0,4.9-1,6.6-3.1C257.7,61.2,258.5,58.4,258.5,54.7z"/>
	<path class="st2" d="M280.3,41.3v1.1c1.7-2.1,3.5-3.7,5.3-4.6c1.8-1,3.9-1.5,6.3-1.5c2.8,0,5.4,0.7,7.7,2.2
		c2.4,1.4,4.2,3.6,5.6,6.3c1.4,2.8,2,6.1,2,9.9c0,2.8-0.4,5.4-1.2,7.7c-0.8,2.3-1.9,4.3-3.2,5.9c-1.4,1.6-3,2.8-4.9,3.7
		c-1.9,0.9-3.9,1.3-6,1.3c-2.6,0-4.8-0.5-6.5-1.6c-1.8-1-3.4-2.6-5-4.6v13.7c0,4-1.5,6-4.4,6c-1.7,0-2.8-0.5-3.4-1.5
		c-0.6-1-0.8-2.5-0.8-4.5V41.4c0-1.7,0.4-3,1.1-3.9c0.8-0.9,1.8-1.3,3.1-1.3c1.3,0,2.3,0.4,3.1,1.3
		C279.9,38.4,280.3,39.7,280.3,41.3z M298.2,54.5c0-2.4-0.4-4.5-1.1-6.2c-0.7-1.7-1.7-3-3-4c-1.3-0.9-2.7-1.4-4.3-1.4
		c-2.5,0-4.6,1-6.3,3c-1.7,2-2.6,4.9-2.6,8.7c0,3.6,0.9,6.4,2.6,8.4s3.8,3,6.4,3c1.5,0,2.9-0.4,4.2-1.3c1.3-0.9,2.3-2.2,3.1-3.9
		S298.2,57,298.2,54.5z"/>
	<g>
		<path class="st2" d="M172.3,95.5c-20.7,0-35.3-11.8-35.5-12c-1.4-1.1-1.5-3.1-0.4-4.5c1.1-1.4,3.1-1.5,4.5-0.4
			c1.2,1,29.3,23.6,62.5-0.1c1.4-1,3.4-0.7,4.5,0.7c1,1.4,0.7,3.4-0.7,4.5C194.6,92.5,182.6,95.5,172.3,95.5z"/>
	</g>
</g>
</svg>
